<svg xmlns="http://www.w3.org/2000/svg" xmlns:xlink="http://www.w3.org/1999/xlink" width="377" zoomAndPan="magnify" viewBox="0 0 283.5 283.500005" height="377" preserveAspectRatio="xMidYMid meet" version="1.0"><defs><g/><clipPath id="0b68579e8f"><path d="M 0 0 L 283 0 L 283 283 L 0 283 Z M 0 0 " clip-rule="nonzero"/></clipPath><clipPath id="9145572220"><path d="M 53 136 L 88 136 L 88 161.019531 L 53 161.019531 Z M 53 136 " clip-rule="nonzero"/></clipPath><clipPath id="6a0a0de112"><path d="M 195 136 L 230 136 L 230 161.019531 L 195 161.019531 Z M 195 136 " clip-rule="nonzero"/></clipPath><clipPath id="399bfc6374"><path d="M 55 51.519531 L 228 51.519531 L 228 122 L 55 122 Z M 55 51.519531 " clip-rule="nonzero"/></clipPath><clipPath id="50ea8db032"><path d="M 52.316406 97 L 230.816406 97 L 230.816406 158 L 52.316406 158 Z M 52.316406 97 " clip-rule="nonzero"/></clipPath></defs><g clip-path="url(#0b68579e8f)"><path fill="#ffffff" d="M 0 0 L 283.5 0 L 283.5 291 L 0 291 Z M 0 0 " fill-opacity="1" fill-rule="nonzero"/><path fill="#ffffff" d="M 0 0 L 283.5 0 L 283.5 283.5 L 0 283.5 Z M 0 0 " fill-opacity="1" fill-rule="nonzero"/><path fill="#ffffff" d="M 0 0 L 283.5 0 L 283.5 283.5 L 0 283.5 Z M 0 0 " fill-opacity="1" fill-rule="nonzero"/></g><g fill="#2563eb" fill-opacity="1"><g transform="translate(41.540011, 199.946935)"><g><path d="M 18.640625 0.683594 C 29.648438 0.683594 36.546875 -7.308594 35.542969 -18.546875 L 17.039062 -18.546875 L 17.039062 -12.0625 L 25.859375 -12.0625 C 24.945312 -9.367188 22.386719 -7.539062 18.730469 -7.539062 C 13.613281 -7.539062 10.644531 -11.148438 10.644531 -15.988281 C 10.644531 -21.015625 13.886719 -24.441406 18.640625 -24.441406 C 21.472656 -24.441406 23.894531 -23.207031 25.128906 -21.199219 L 34.949219 -21.199219 C 33.078125 -28.1875 26.589844 -32.664062 18.503906 -32.664062 C 8.453125 -32.664062 1.554688 -25.8125 1.554688 -15.988281 C 1.554688 -6.121094 8.496094 0.683594 18.640625 0.683594 Z M 18.640625 0.683594 "/></g></g><g transform="translate(78.636738, 199.946935)"><g><path d="M 3.378906 0 L 12.609375 0 L 12.609375 -31.980469 L 3.378906 -31.980469 Z M 3.378906 0 "/></g></g></g><g fill="#2563eb" fill-opacity="1"><g transform="translate(94.626696, 199.946935)"><g><path d="M 0.226562 0 L 10.003906 0 L 11.742188 -4.523438 L 22.660156 -4.523438 L 24.394531 0 L 34.21875 0 L 21.792969 -31.980469 L 12.65625 -31.980469 Z M 13.660156 -11.285156 L 17.222656 -21.199219 L 20.785156 -11.285156 Z M 13.660156 -11.285156 "/></g></g></g><g fill="#2563eb" fill-opacity="1"><g transform="translate(129.073655, 199.946935)"><g/></g></g><g fill="#2563eb" fill-opacity="1"><g transform="translate(139.627037, 199.946935)"><g><path d="M 22.476562 0 L 31.707031 0 L 31.707031 -31.980469 L 22.476562 -31.980469 L 22.476562 -20.511719 L 12.609375 -20.511719 L 12.609375 -31.980469 L 3.378906 -31.980469 L 3.378906 0 L 12.609375 0 L 12.609375 -12.015625 L 22.476562 -12.015625 Z M 22.476562 0 "/></g></g></g><g fill="#2563eb" fill-opacity="1"><g transform="translate(174.713592, 199.946935)"><g><path d="M 17.132812 0.683594 C 25.765625 0.683594 31.113281 -4.570312 31.113281 -13.15625 L 31.113281 -31.980469 L 21.929688 -31.980469 L 21.929688 -13.75 C 21.929688 -9.960938 20.332031 -7.949219 17.132812 -7.949219 C 13.933594 -7.949219 12.335938 -9.960938 12.335938 -13.75 L 12.335938 -31.980469 L 3.105469 -31.980469 L 3.105469 -13.15625 C 3.105469 -4.570312 8.496094 0.683594 17.132812 0.683594 Z M 17.132812 0.683594 "/></g></g><g transform="translate(208.97781, 199.946935)"><g><path d="M 11.878906 0 L 21.0625 0 L 21.0625 -11.148438 L 32.710938 -31.980469 L 22.25 -31.980469 L 16.445312 -20.511719 L 13.980469 -25.355469 L 10.597656 -31.980469 L 0.226562 -31.980469 L 11.878906 -11.101562 Z M 11.878906 0 "/></g></g></g><g fill="#2563eb" fill-opacity="1"><g transform="translate(55.325315, 225.960475)"><g><path d="M 5.875 -15.8125 L 7.703125 -3.796875 L 7.859375 -3.796875 L 13.671875 -15.8125 L 17.375 -15.8125 L 9.296875 0 L 4.984375 0 L 2.15625 -15.8125 Z M 5.875 -15.8125 "/></g></g></g><g fill="#2563eb" fill-opacity="1"><g transform="translate(85.316043, 225.960475)"><g><path d="M 3.109375 0 L -0.46875 0 L 7.609375 -15.8125 L 11.921875 -15.8125 L 14.75 0 L 11.171875 0 L 10.59375 -3.609375 L 4.890625 -3.609375 Z M 6.171875 -6.21875 L 10.1875 -6.21875 L 9.25 -12.203125 L 9.125 -12.203125 Z M 8.453125 -17.234375 L 10.3125 -19.125 L 11.5625 -17.234375 L 14.359375 -17.234375 L 14.375 -17.34375 L 11.828125 -20.75 L 9.390625 -20.75 L 5.65625 -17.34375 L 5.640625 -17.234375 Z M 6.515625 4.4375 C 6.023438 4.4375 5.625 4.269531 5.3125 3.9375 C 5 3.613281 4.867188 3.222656 4.921875 2.765625 C 4.984375 2.304688 5.207031 1.914062 5.59375 1.59375 C 5.976562 1.269531 6.410156 1.109375 6.890625 1.109375 C 7.378906 1.109375 7.78125 1.269531 8.09375 1.59375 C 8.40625 1.914062 8.535156 2.304688 8.484375 2.765625 C 8.429688 3.222656 8.210938 3.613281 7.828125 3.9375 C 7.441406 4.269531 7.003906 4.4375 6.515625 4.4375 Z M 6.515625 4.4375 "/></g></g></g><g fill="#2563eb" fill-opacity="1"><g transform="translate(115.306771, 225.960475)"><g><path d="M 16.25 -15.8125 L 13.609375 0 L 10.734375 0 L 5.515625 -9.953125 L 5.390625 -9.953125 L 3.734375 0 L 0.390625 0 L 3.015625 -15.8125 L 5.953125 -15.8125 L 11.140625 -5.875 L 11.265625 -5.875 L 12.921875 -15.8125 Z M 16.25 -15.8125 "/></g></g></g><g fill="#2563eb" fill-opacity="1"><g transform="translate(145.019494, 225.960475)"><g/></g></g><g fill="#2563eb" fill-opacity="1"><g transform="translate(163.789505, 225.960475)"><g><path d="M 1.953125 -13.0625 L 2.40625 -15.8125 L 15.40625 -15.8125 L 14.9375 -13.0625 L 10.09375 -13.0625 L 7.9375 0 L 4.625 0 L 6.796875 -13.0625 Z M 1.953125 -13.0625 "/></g></g></g><g fill="#2563eb" fill-opacity="1"><g transform="translate(192.050396, 225.960475)"><g><path d="M 3.109375 0 L -0.46875 0 L 7.609375 -15.8125 L 11.921875 -15.8125 L 14.75 0 L 11.171875 0 L 10.59375 -3.609375 L 4.890625 -3.609375 Z M 6.171875 -6.21875 L 10.1875 -6.21875 L 9.25 -12.203125 L 9.125 -12.203125 Z M 11.265625 -17.515625 L 8.828125 -17.515625 L 8.890625 -18.90625 C 9.429688 -18.9375 9.828125 -19.007812 10.078125 -19.125 C 10.335938 -19.25 10.476562 -19.410156 10.5 -19.609375 C 10.550781 -19.890625 10.4375 -20.078125 10.15625 -20.171875 C 9.882812 -20.273438 9.523438 -20.328125 9.078125 -20.328125 L 9.40625 -21.8125 C 10.789062 -21.8125 11.804688 -21.625 12.453125 -21.25 C 13.109375 -20.882812 13.382812 -20.367188 13.28125 -19.703125 C 13.207031 -19.234375 12.976562 -18.878906 12.59375 -18.640625 C 12.207031 -18.410156 11.800781 -18.265625 11.375 -18.203125 Z M 11.265625 -17.515625 "/></g></g></g><g fill="#2563eb" fill-opacity="1"><g transform="translate(222.041121, 225.960475)"><g><path d="M 6.359375 -15.8125 L 3.734375 0 L 0.390625 0 L 3.015625 -15.8125 Z M 6.359375 -15.8125 "/></g></g></g><path fill="#2563eb" d="M 65.980469 117.8125 C 73.09375 120.496094 83.902344 122.242188 87.316406 122.441406 C 90.730469 122.644531 91.480469 121.835938 91.480469 121.835938 C 80.46875 119.757812 59.660156 112.171875 59.660156 112.171875 C 59.660156 112.171875 58.859375 115.128906 65.980469 117.8125 Z M 65.980469 117.8125 " fill-opacity="1" fill-rule="nonzero"/><path fill="#2563eb" d="M 223.46875 112.175781 C 223.46875 112.175781 202.65625 119.761719 191.644531 121.839844 C 191.644531 121.839844 192.386719 122.644531 195.808594 122.445312 C 199.234375 122.246094 210.035156 120.5 217.148438 117.816406 C 224.257812 115.132812 223.46875 112.175781 223.46875 112.175781 Z M 223.46875 112.175781 " fill-opacity="1" fill-rule="nonzero"/><g clip-path="url(#9145572220)"><path fill="#2563eb" d="M 53.960938 136.535156 L 54.433594 155.691406 C 54.433594 156.039062 54.46875 156.386719 54.539062 156.730469 C 54.605469 157.070312 54.707031 157.40625 54.839844 157.726562 C 54.976562 158.050781 55.140625 158.359375 55.332031 158.648438 C 55.527344 158.9375 55.75 159.207031 55.996094 159.457031 C 56.242188 159.703125 56.511719 159.925781 56.804688 160.117188 C 57.09375 160.3125 57.402344 160.476562 57.726562 160.613281 C 58.046875 160.746094 58.382812 160.847656 58.722656 160.917969 C 59.066406 160.984375 59.414062 161.019531 59.761719 161.019531 L 81.679688 161.019531 C 82.058594 161.019531 82.433594 160.984375 82.804688 160.910156 C 83.179688 160.835938 83.539062 160.726562 83.890625 160.582031 C 84.238281 160.433594 84.570312 160.257812 84.886719 160.046875 C 85.203125 159.835938 85.492188 159.597656 85.761719 159.328125 C 86.03125 159.0625 86.269531 158.769531 86.480469 158.453125 C 86.691406 158.140625 86.867188 157.808594 87.011719 157.457031 C 87.15625 157.105469 87.265625 156.746094 87.339844 156.375 C 87.414062 156.003906 87.453125 155.628906 87.453125 155.25 C 87.453125 155.25 72.417969 153.242188 63.085938 149.285156 C 55.6875 146.144531 53.960938 136.535156 53.960938 136.535156 Z M 53.960938 136.535156 " fill-opacity="1" fill-rule="nonzero"/></g><g clip-path="url(#6a0a0de112)"><path fill="#2563eb" d="M 220.046875 149.285156 C 210.714844 153.246094 195.679688 155.257812 195.679688 155.257812 C 195.683594 155.636719 195.71875 156.011719 195.792969 156.382812 C 195.867188 156.753906 195.976562 157.113281 196.121094 157.460938 C 196.265625 157.8125 196.445312 158.144531 196.65625 158.457031 C 196.867188 158.773438 197.105469 159.0625 197.375 159.332031 C 197.640625 159.597656 197.933594 159.839844 198.246094 160.046875 C 198.5625 160.257812 198.894531 160.4375 199.242188 160.582031 C 199.59375 160.726562 199.953125 160.835938 200.324219 160.910156 C 200.695312 160.984375 201.070312 161.019531 201.449219 161.019531 L 223.371094 161.019531 C 223.722656 161.019531 224.066406 160.988281 224.414062 160.917969 C 224.757812 160.851562 225.089844 160.75 225.414062 160.613281 C 225.738281 160.480469 226.046875 160.316406 226.335938 160.121094 C 226.628906 159.925781 226.898438 159.707031 227.144531 159.457031 C 227.394531 159.210938 227.617188 158.941406 227.808594 158.648438 C 228.003906 158.359375 228.167969 158.050781 228.304688 157.726562 C 228.4375 157.402344 228.539062 157.070312 228.609375 156.726562 C 228.675781 156.382812 228.710938 156.035156 228.710938 155.683594 L 229.179688 136.527344 C 229.179688 136.527344 227.445312 146.144531 220.046875 149.285156 Z M 220.046875 149.285156 " fill-opacity="1" fill-rule="nonzero"/></g><path fill="#2563eb" d="M 141.566406 146.527344 C 122.316406 146.839844 105.71875 141.296875 105.71875 141.296875 C 119.707031 148.8125 141.566406 148.765625 141.566406 148.765625 C 141.566406 148.765625 163.417969 148.816406 177.414062 141.296875 C 177.414062 141.296875 161.363281 146.730469 141.566406 146.527344 Z M 141.566406 146.527344 " fill-opacity="1" fill-rule="nonzero"/><path fill="#2563eb" d="M 170.96875 136.132812 C 161.039062 139.664062 141.566406 139.785156 141.566406 139.785156 C 141.566406 139.785156 122.09375 139.664062 112.164062 136.125 C 103.054688 132.878906 95.917969 125.597656 95.917969 125.597656 C 95.917969 125.597656 103.03125 134.453125 111.492188 137.945312 C 119.957031 141.4375 141.566406 141.835938 141.566406 141.835938 C 141.566406 141.835938 163.183594 141.433594 171.640625 137.945312 C 180.097656 134.457031 187.214844 125.597656 187.214844 125.597656 C 187.214844 125.597656 180.078125 132.878906 170.96875 136.132812 Z M 170.96875 136.132812 " fill-opacity="1" fill-rule="nonzero"/><path fill="#2563eb" d="M 141.566406 135.640625 C 141.566406 135.640625 163.183594 135.234375 171.640625 131.746094 C 176.628906 129.6875 181.148438 125.765625 184.019531 122.890625 C 183.644531 122.96875 183.148438 123.070312 182.941406 123.117188 C 179.992188 125.410156 175.753906 128.230469 170.96875 129.9375 C 161.039062 133.46875 141.566406 133.585938 141.566406 133.585938 C 141.566406 133.585938 122.097656 133.46875 112.167969 129.929688 C 107.375 128.226562 103.136719 125.402344 100.191406 123.113281 C 99.832031 123.046875 99.472656 122.976562 99.113281 122.894531 C 101.984375 125.769531 106.503906 129.691406 111.492188 131.75 C 119.957031 135.238281 141.566406 135.640625 141.566406 135.640625 Z M 141.566406 135.640625 " fill-opacity="1" fill-rule="nonzero"/><g clip-path="url(#399bfc6374)"><path fill="#2563eb" d="M 64.632812 104.726562 C 72.285156 108.519531 102.027344 121.910156 141.566406 121.839844 C 181.109375 121.90625 210.847656 108.515625 218.5 104.726562 C 225.578125 101.222656 228.570312 97.679688 227.160156 93.65625 C 225.75 89.628906 215.277344 83.992188 215.277344 83.992188 C 215.277344 83.992188 214.066406 82.78125 204.402344 82.382812 C 204.402344 82.382812 204.132812 81.925781 203.660156 81.148438 C 204.675781 81.308594 205.671875 81.554688 206.648438 81.878906 C 213.398438 83.992188 221.554688 80.570312 220.851562 77.046875 C 220.148438 73.527344 211.988281 72.117188 208.265625 72.820312 C 204.539062 73.523438 204.4375 77.953125 204.4375 77.953125 L 201.691406 77.953125 C 198.191406 72.378906 192 63 187.355469 58.632812 C 180.503906 52.183594 173.925781 51.917969 141.566406 51.519531 C 109.207031 51.925781 102.628906 52.195312 95.78125 58.632812 C 91.132812 63.003906 84.945312 72.378906 81.445312 77.957031 L 78.695312 77.957031 C 78.695312 77.957031 78.59375 73.527344 74.871094 72.824219 C 71.144531 72.121094 62.988281 73.535156 62.28125 77.050781 C 61.578125 80.570312 69.734375 83.996094 76.484375 81.882812 C 77.460938 81.558594 78.457031 81.316406 79.472656 81.152344 C 79 81.933594 78.734375 82.386719 78.734375 82.386719 C 69.070312 82.78125 67.859375 83.992188 67.855469 83.992188 C 67.855469 83.992188 57.394531 89.628906 55.96875 93.65625 C 54.546875 97.683594 57.554688 101.222656 64.632812 104.726562 Z M 97.1875 90.628906 C 97.488281 93.847656 99.097656 102.90625 99.097656 102.90625 L 93.761719 86.199219 L 100.609375 86.199219 C 100.609375 86.199219 96.882812 87.414062 97.1875 90.628906 Z M 141.566406 120.019531 C 141.566406 120.019531 121.023438 118.726562 105.316406 113.433594 C 105.316406 113.433594 129.28125 116.191406 141.566406 115.585938 C 153.851562 116.191406 177.816406 113.433594 177.816406 113.433594 C 162.109375 118.734375 141.566406 120.019531 141.566406 120.019531 Z M 185.570312 102.90625 C 185.570312 102.90625 187.183594 93.847656 187.484375 90.625 C 187.785156 87.40625 184.058594 86.195312 184.058594 86.195312 L 190.910156 86.195312 Z M 100.882812 58.550781 C 106.617188 54.996094 114.59375 54.144531 141.566406 54.144531 C 166.203125 54.144531 177.226562 54.914062 182.144531 58.46875 C 189.019531 62.496094 195.714844 74.875 201.660156 84.273438 L 141.566406 85.601562 L 81.683594 84.273438 C 87.628906 74.875 94 62.589844 100.882812 58.550781 Z M 100.882812 58.550781 " fill-opacity="1" fill-rule="nonzero"/></g><g clip-path="url(#50ea8db032)"><path fill="#2563eb" d="M 228.398438 97.894531 C 227.859375 103.363281 220.414062 106.394531 201.078125 113.441406 C 175.148438 122.898438 141.5625 123.246094 141.5625 123.246094 C 141.5625 123.246094 107.980469 122.898438 82.050781 113.441406 C 62.71875 106.394531 55.277344 103.363281 54.734375 97.894531 C 54.734375 97.894531 52.347656 100.953125 52.683594 112.445312 C 53.050781 125.0625 53.085938 141.03125 62.351562 146.9375 C 69.242188 151.332031 92.488281 154.980469 104.265625 155.011719 C 104.273438 155.011719 104.277344 155.015625 104.28125 155.015625 C 143.777344 159.796875 178.992188 155.015625 178.992188 155.015625 C 190.808594 154.957031 213.910156 151.316406 220.789062 146.9375 C 230.0625 141.03125 230.085938 125.058594 230.457031 112.445312 C 230.785156 100.953125 228.398438 97.894531 228.398438 97.894531 Z M 227.523438 112.308594 C 225.8125 114.054688 226.421875 114.726562 224.003906 126.804688 C 221.585938 138.886719 197.152344 140.894531 197.152344 140.894531 C 201.984375 130.292969 211.511719 121.300781 211.511719 121.300781 C 192.953125 128.898438 177.992188 142.894531 173.371094 149.964844 C 167.792969 150.921875 157.957031 152.105469 143.367188 152.105469 C 124.851562 152.105469 113.378906 149.570312 108.480469 148.183594 C 102.765625 140.742188 88.722656 128.300781 71.621094 121.300781 C 71.621094 121.300781 81.152344 130.292969 85.984375 140.894531 C 85.984375 140.894531 61.550781 138.882812 59.132812 126.804688 C 56.714844 114.726562 57.324219 114.054688 55.613281 112.308594 C 55.136719 110.515625 54.917969 108.695312 54.953125 106.839844 C 54.953125 106.839844 77.53125 123.988281 141.566406 125.128906 C 205.601562 123.988281 228.179688 106.839844 228.179688 106.839844 C 228.214844 108.695312 228 110.515625 227.523438 112.308594 Z M 227.523438 112.308594 " fill-opacity="1" fill-rule="nonzero"/></g></svg>